# xmcd
#
# Track frame offsets:
#	150
#	19463
#	32719
#	52290
#	69395
#	84118
#	103395
#	119447
#	137128
#	154518
#	171821
#	186862
#	205365
#	220706
#	235879
#
# Disc length: 3388 seconds
#
# Revision: 1
# Processed by: cddbd v1.5.2PL0 Copyright (c) Steve Scherf et al.
# Submitted via: audiograbber 1.83.01
#
DISCID=d80d3a0f
DTITLE=Karaoke - CBP60413
DYEAR=1900
DGENRE=
TTITLE0=Rascal Flatts - Summer Nights
TTITLE1=Rodney Atkins - Indian Summer
TTITLE2=Brooks and Dunn - Indian Summer
TTITLE3=Duncan Whitney - Skinny Dippin'
TTITLE4=Craig Morgan - Bonfire
TTITLE5=Trent Tomlison - Henry Cartwright's
TTITLE6=Jason Aldean - Big Green Tractor
TTITLE7=Lady Antebellum - I was Here
TTITLE8=Trace Adkins - All I Ask for Any More
TTITLE9=George Strait - Living for the Night
TTITLE10=Jake Owen - Eight Second Ride
TTITLE11=Gretchen Wilson - If I Could Do It All Again
TTITLE12=Eric Church - Smoke A Little Smoke
TTITLE13=Trailer Choir - Rockin the Beer Gut
TTITLE14=Montgomery Gent - Long Line of Losers
EXTD=
EXTT0=
EXTT1=
EXTT2=
EXTT3=
EXTT4=
EXTT5=
EXTT6=
EXTT7=
EXTT8=
EXTT9=
EXTT10=
EXTT11=
EXTT12=
EXTT13=
EXTT14=
PLAYORDER=
